<?xml version="1.0" standalone="no"?>
<!DOCTYPE svg PUBLIC "-//W3C//DTD SVG 20010904//EN"
 "http://www.w3.org/TR/2001/REC-SVG-20010904/DTD/svg10.dtd">
<svg version="1.0" xmlns="http://www.w3.org/2000/svg"
 width="1536.000000pt" height="1024.000000pt" viewBox="0 0 1536.000000 1024.000000"
 preserveAspectRatio="xMidYMid meet">

<g transform="translate(0.000000,1024.000000) scale(0.100000,-0.100000)"
fill="#000000" stroke="none">
<path d="M7840 8140 c-25 -4 -70 -17 -99 -29 l-55 -21 -64 20 c-127 40 -301
18 -417 -50 -81 -48 -176 -147 -218 -228 -58 -110 -78 -197 -84 -361 l-6 -143
23 7 c12 4 28 8 34 9 6 2 39 8 73 16 l62 12 6 67 c16 179 41 263 107 361 62
94 142 139 275 156 l54 6 -41 -64 c-75 -119 -120 -304 -120 -490 l0 -87 -52
-15 c-158 -45 -914 -253 -952 -262 l-28 -7 7 -156 c4 -86 13 -244 20 -351 7
-107 10 -198 6 -203 -4 -4 -142 -54 -307 -112 -598 -208 -699 -245 -711 -262
-30 -40 5 -113 53 -113 25 0 707 235 921 318 62 23 58 29 68 -99 l7 -86 -213
-74 c-117 -41 -218 -80 -226 -87 -19 -19 -28 -62 -16 -81 5 -9 21 -22 35 -30
23 -13 40 -9 224 56 l199 70 6 -36 c4 -20 9 -67 12 -106 l6 -70 -97 -31 c-151
-49 -592 -204 -639 -224 -47 -21 -60 -49 -44 -93 20 -53 50 -53 205 2 78 27
175 60 216 74 41 13 139 48 218 76 78 28 146 51 151 51 4 0 13 -45 20 -101 7
-56 15 -107 18 -115 3 -8 -1 -16 -8 -18 -30 -9 -487 -169 -522 -183 -40 -16
-54 -44 -43 -88 11 -45 47 -52 129 -26 86 27 354 122 415 146 24 10 45 15 48
13 4 -4 25 -114 36 -191 3 -15 -33 -31 -222 -98 -124 -44 -245 -86 -270 -93
-108 -34 -263 -96 -281 -112 -39 -36 -10 -114 44 -114 12 0 193 59 401 132
l379 132 16 -24 c64 -99 156 -157 293 -186 76 -16 83 -16 508 16 130 10 162
20 440 133 345 140 614 258 815 357 347 171 407 243 436 520 20 190 -15 708
-81 1200 -31 227 -90 620 -111 735 l-12 62 -142 6 c-78 4 -170 4 -203 1 l-61
-7 -6 29 c-40 197 -92 311 -180 400 -120 121 -286 173 -455 144z m188 -185
c100 -30 202 -156 246 -304 23 -78 21 -88 -16 -96 -40 -9 -309 -82 -517 -141
-85 -24 -161 -44 -169 -44 -13 0 -14 16 -8 103 9 140 50 287 99 352 15 20 16
20 42 -5 33 -31 77 -109 101 -177 10 -29 23 -53 29 -53 21 1 166 38 172 44 20
19 -77 214 -139 282 -38 41 -38 43 -16 47 51 10 127 6 176 -8z"/>
<path d="M7985 4190 c-772 -14 -1307 -50 -1387 -92 -74 -38 86 -63 511 -79
563 -22 1658 20 2046 77 464 68 -99 113 -1170 94z"/>
<path d="M8375 3646 c-155 -49 -238 -156 -239 -306 0 -127 38 -177 198 -257
50 -25 99 -52 109 -61 26 -23 23 -83 -7 -111 -59 -56 -146 -26 -146 50 l0 39
-120 0 c-136 0 -135 1 -134 -80 3 -172 149 -259 384 -229 188 23 295 143 295
329 0 126 -39 177 -197 256 -49 24 -97 53 -108 64 -64 64 43 166 110 105 15
-13 20 -31 20 -67 l0 -48 124 0 123 0 6 59 c13 125 -47 223 -155 256 -62 18
-207 19 -263 1z"/>
<path d="M10100 3641 c-80 -26 -111 -44 -162 -96 -87 -88 -118 -173 -158 -435
-27 -177 -19 -253 34 -322 76 -101 258 -132 448 -77 118 34 202 121 248 258
26 80 70 334 70 410 0 189 -111 282 -334 280 -58 0 -111 -6 -146 -18z m193
-201 c41 -32 42 -73 12 -253 -30 -179 -54 -247 -96 -278 -61 -43 -140 -34
-172 20 -22 38 -22 62 8 238 28 167 57 240 108 272 42 27 106 27 140 1z"/>
<path d="M3907 3183 c-43 -258 -78 -472 -77 -476 0 -4 50 -6 112 -5 l112 3 27
160 c15 88 33 190 39 228 12 66 23 84 32 49 3 -9 45 -113 93 -230 l88 -212 97
0 96 0 13 83 c10 65 123 719 145 840 l6 27 -110 0 -109 0 -5 -32 c-51 -329
-67 -411 -76 -401 -4 4 -13 26 -20 48 -7 22 -43 110 -80 195 -37 85 -70 163
-73 173 -6 15 -21 17 -120 17 l-113 0 -77 -467z"/>
<path d="M4835 3628 c-3 -13 -21 -120 -40 -238 -20 -118 -54 -316 -76 -440
-21 -124 -39 -231 -39 -237 0 -10 61 -13 274 -13 l273 0 17 104 c9 58 16 110
16 116 0 8 -45 10 -146 9 -80 0 -147 1 -149 3 -3 2 1 38 8 79 l13 74 127 3
c70 1 127 4 127 6 0 3 7 40 15 83 26 133 35 123 -108 123 l-123 0 10 60 10 59
150 3 150 3 18 95 c9 52 17 103 17 113 1 16 -18 17 -269 17 l-270 0 -5 -22z"/>
<path d="M5515 3638 c-18 -59 -107 -633 -106 -688 1 -155 81 -239 245 -260
207 -26 374 46 445 194 32 66 46 124 92 396 16 96 36 210 44 254 24 127 34
116 -110 116 -121 0 -125 -1 -130 -22 -2 -13 -25 -144 -50 -293 -58 -347 -68
-383 -105 -417 -58 -54 -139 -46 -169 16 -14 30 -10 62 65 481 19 105 34 200
34 213 0 22 -2 22 -125 22 -92 0 -127 -3 -130 -12z"/>
<path d="M6396 3623 c-3 -15 -24 -136 -47 -268 -22 -132 -56 -330 -75 -440
-18 -110 -34 -203 -34 -208 0 -4 55 -6 122 -5 l122 3 29 183 c39 242 46 242
107 -5 l45 -183 138 0 c75 0 137 4 137 8 0 10 -60 219 -94 325 l-24 78 37 19
c84 42 140 127 161 239 21 119 -19 213 -109 254 -42 20 -68 22 -278 25 l-231
4 -6 -29z m339 -175 c32 -14 41 -48 26 -98 -15 -52 -59 -82 -128 -88 -62 -5
-59 -13 -37 109 l17 89 48 0 c26 0 60 -5 74 -12z"/>
<path d="M7461 3593 c-16 -32 -62 -130 -104 -218 -41 -88 -105 -223 -142 -300
-115 -240 -175 -366 -175 -371 0 -2 57 -4 128 -4 l127 0 34 80 34 80 132 0
132 0 9 -77 9 -78 128 -3 c107 -2 127 0 127 12 0 21 -24 198 -65 471 -19 127
-39 271 -45 320 -6 50 -13 102 -16 118 l-6 27 -139 0 -139 0 -29 -57z m119
-388 c6 -60 14 -118 16 -127 5 -16 -3 -18 -74 -18 l-80 0 62 147 c33 82 62
139 63 128 1 -11 7 -69 13 -130z"/>
<path d="M9000 3648 c-1 -4 -42 -246 -109 -640 -28 -163 -51 -299 -51 -302 0
-3 56 -6 124 -6 l124 0 16 90 c9 50 23 130 32 179 l16 90 114 3 115 3 -6 -25
c-11 -53 -55 -315 -55 -327 0 -10 30 -13 123 -13 l122 0 18 98 c9 53 44 255
77 447 33 193 63 363 66 378 l6 28 -128 -3 -128 -3 -28 -165 c-15 -91 -27
-171 -28 -177 0 -16 -230 -19 -230 -4 0 6 9 56 19 113 11 57 22 121 25 143 4
22 9 52 12 68 l6 27 -126 0 c-69 0 -126 -1 -126 -2z"/>
<path d="M10776 3639 c-2 -8 -7 -30 -9 -49 -3 -19 -20 -116 -37 -215 -17 -99
-49 -281 -71 -405 -21 -124 -41 -235 -44 -248 l-6 -23 128 3 127 3 30 181 30
182 105 4 c201 10 295 68 352 219 28 72 28 182 1 235 -25 50 -46 68 -107 96
-46 20 -68 23 -272 26 -182 3 -224 2 -227 -9z m360 -204 c18 -24 18 -57 0
-100 -19 -45 -53 -65 -120 -72 -65 -7 -63 -14 -40 111 l16 88 65 -4 c49 -3 69
-9 79 -23z"/>
</g>
</svg>
